HIERARCHY
ROOT hip
{
  OFFSET 0.0 0.0 0.0
  CHANNELS 6 Xposition Yposition Zposition Zrotation Yrotation Xrotation
  JOINT abdomen
  {
    OFFSET 0.0 20.6881 -0.73152
    CHANNELS 3 Zrotation Xrotation Yrotation
    JOINT chest
    {
      OFFSET 0.0 11.7043 -0.48768
      CHANNELS 3 Zrotation Xrotation Yrotation
      JOINT neck
      {
        OFFSET 0.0 22.1894 -2.19456
        CHANNELS 3 Zrotation Xrotation Yrotation
        JOINT head
        {
          OFFSET -0.24384 7.07133 1.2192
          CHANNELS 3 Zrotation Xrotation Yrotation
          JOINT leftEye
          {
            OFFSET 4.14528 8.04674 8.04672
            CHANNELS 3 Zrotation Xrotation Yrotation
            End Site
            {
              OFFSET 1.0 0.0 0.0
            }
          }
          JOINT rightEye
          {
            OFFSET -3.6576 8.04674 8.04672
            CHANNELS 3 Zrotation Xrotation Yrotation
            End Site
            {
              OFFSET 1.0 0.0 0.0
            }
          }
        }
      }
      JOINT rCollar
      {
        OFFSET -2.68224 19.2634 -4.8768
        CHANNELS 3 Zrotation Xrotation Yrotation
        JOINT rShldr
        {
          OFFSET -8.77824 -1.95073 1.46304
          CHANNELS 3 Zrotation Xrotation Yrotation
          JOINT rForeArm
          {
            OFFSET -28.1742 -1.7115 0.48768
            CHANNELS 3 Zrotation Xrotation Yrotation
            JOINT rHand
            {
              OFFSET -22.5879 0.773209 7.07136
              CHANNELS 3 Zrotation Xrotation Yrotation
              JOINT rThumb1
              {
                OFFSET -1.2192 -0.487915 3.41376
                CHANNELS 3 Zrotation Xrotation Yrotation
                JOINT rThumb2
                {
                  OFFSET -3.37035 -0.52449 3.41376
                  CHANNELS 3 Zrotation Xrotation Yrotation
                  End Site
                  {
                    OFFSET -1.78271 -1.18214 1.43049
                  }
                }
              }
              JOINT rIndex1
              {
                OFFSET -7.75947 0.938293 5.60832
                CHANNELS 3 Zrotation Xrotation Yrotation
                JOINT rIndex2
                {
                  OFFSET -2.54057 -0.884171 1.56538
                  CHANNELS 3 Zrotation Xrotation Yrotation
                  End Site
                  {
                    OFFSET -1.62519 -0.234802 1.16502
                  }
                }
              }
              JOINT rMid1
              {
                OFFSET -8.24714 1.18213 3.41376
                CHANNELS 3 Zrotation Xrotation Yrotation
                JOINT rMid2
                {
                  OFFSET -3.10165 -0.590103 1.0647
                  CHANNELS 3 Zrotation Xrotation Yrotation
                  End Site
                  {
                    OFFSET -2.48547 -0.328903 0.83742
                  }
                }
              }
              JOINT rRing1
              {
                OFFSET -8.82822 0.546677 1.51678
                CHANNELS 3 Zrotation Xrotation Yrotation
                JOINT rRing2
                {
                  OFFSET -2.60934 -0.819778 -0.0198488
                  CHANNELS 3 Zrotation Xrotation Yrotation
                  End Site
                  {
                    OFFSET -2.33842 -0.294052 0.168128
                  }
                }
              }
              JOINT rPinky1
              {
                OFFSET -8.27202 -0.0477905 -0.4584
                CHANNELS 3 Zrotation Xrotation Yrotation
                JOINT rPinky2
                {
                  OFFSET -1.82734 -0.647385 -0.700984
                  CHANNELS 3 Zrotation Xrotation Yrotation
                  End Site
                  {
                    OFFSET -1.69225 -0.51767 -0.607171
                  }
                }
              }
            }
          }
        }
      }
      JOINT lCollar
      {
        OFFSET 2.68224 19.2634 -4.8768
        CHANNELS 3 Zrotation Xrotation Yrotation
        JOINT lShldr
        {
          OFFSET 8.77824 -1.95073 1.46304
          CHANNELS 3 Zrotation Xrotation Yrotation
          JOINT lForeArm
          {
            OFFSET 28.1742 -1.7115 0.48768
            CHANNELS 3 Zrotation Xrotation Yrotation
            JOINT lHand
            {
              OFFSET 22.5879 0.773209 7.07136
              CHANNELS 3 Zrotation Xrotation Yrotation
              JOINT lThumb1
              {
                OFFSET 1.2192 -0.487915 3.41376
                CHANNELS 3 Zrotation Xrotation Yrotation
                JOINT lThumb2
                {
                  OFFSET 3.37035 -0.52449 3.41376
                  CHANNELS 3 Zrotation Xrotation Yrotation
                  End Site
                  {
                    OFFSET 1.78271 -1.18214 1.43049
                  }
                }
              }
              JOINT lIndex1
              {
                OFFSET 7.75947 0.938293 5.60832
                CHANNELS 3 Zrotation Xrotation Yrotation
                JOINT lIndex2
                {
                  OFFSET 2.54057 -0.884171 1.56538
                  CHANNELS 3 Zrotation Xrotation Yrotation
                  End Site
                  {
                    OFFSET 1.62519 -0.234802 1.16502
                  }
                }
              }
              JOINT lMid1
              {
                OFFSET 8.24714 1.18213 3.41376
                CHANNELS 3 Zrotation Xrotation Yrotation
                JOINT lMid2
                {
                  OFFSET 3.10165 -0.590103 1.0647
                  CHANNELS 3 Zrotation Xrotation Yrotation
                  End Site
                  {
                    OFFSET 2.48547 -0.328903 0.83742
                  }
                }
              }
              JOINT lRing1
              {
                OFFSET 8.82822 0.546677 1.51678
                CHANNELS 3 Zrotation Xrotation Yrotation
                JOINT lRing2
                {
                  OFFSET 2.60934 -0.819778 -0.0198488
                  CHANNELS 3 Zrotation Xrotation Yrotation
                  End Site
                  {
                    OFFSET 2.33842 -0.294052 0.168128
                  }
                }
              }
              JOINT lPinky1
              {
                OFFSET 8.27202 -0.0477905 -0.4584
                CHANNELS 3 Zrotation Xrotation Yrotation
                JOINT lPinky2
                {
                  OFFSET 1.82734 -0.647385 -0.700984
                  CHANNELS 3 Zrotation Xrotation Yrotation
                  End Site
                  {
                    OFFSET 1.69225 -0.51767 -0.607171
                  }
                }
              }
            }
          }
        }
      }
    }
  }
  JOINT rButtock
  {
    OFFSET -8.77824 4.35084 1.2192
    CHANNELS 3 Zrotation Xrotation Yrotation
    JOINT rThigh
    {
      OFFSET 0.0 -1.70687 -2.19456
      CHANNELS 3 Zrotation Xrotation Yrotation
      JOINT rShin
      {
        OFFSET 0.0 -36.8199 0.73152
        CHANNELS 3 Zrotation Xrotation Yrotation
        JOINT rFoot
        {
          OFFSET 0.73152 -45.1104 -5.12064
          CHANNELS 3 Zrotation Xrotation Yrotation
          End Site
          {
            OFFSET -1.1221 -3.69964 12.103
          }
        }
      }
    }
  }
  JOINT lButtock
  {
    OFFSET 8.77824 4.35084 1.2192
    CHANNELS 3 Zrotation Xrotation Yrotation
    JOINT lThigh
    {
      OFFSET 0.0 -1.70687 -2.19456
      CHANNELS 3 Zrotation Xrotation Yrotation
      JOINT lShin
      {
        OFFSET 0.0 -36.8199 0.73152
        CHANNELS 3 Zrotation Xrotation Yrotation
        JOINT lFoot
        {
          OFFSET -0.73152 -45.1104 -5.12064
          CHANNELS 3 Zrotation Xrotation Yrotation
          End Site
          {
            OFFSET 1.1221 -3.69964 12.103
          }
        }
      }
    }
  }
}
MOTION
Frames: 4
Frame Time: 0.00833333
-183.4625 83.825 -11.73432 249.206 -93.9128 -234.695 -7.06402 -4.11412 -1.73361 1.6604 -17.0988 -0.540929 7.90537 -5.41491 5.60881 -12.017 -2.38589 7.85924 -0.0 0.0 0.0 -0.0 0.0 0.0 0.0 0.0 0.0 0.0 0.0 0.0 0.0 0.0 0.0 -0.703318 -23.1121 -3.43871 -6.76663e-12 -3.6077e-11 -1.26538e-10 -1.33703e-11 -6.10667e-11 -2.2071e-10 -6.75987e-12 -3.60746e-11 -1.26542e-10 7.73091 5.47488 0.417314 -6.76246e-12 -3.60767e-11 -1.26538e-10 2.90554 0.965183 0.102902 -6.76106e-12 -3.60766e-11 -1.26537e-10 10.2786 0.731801 0.0259123 -6.76762e-12 -3.60762e-11 -1.26532e-10 2.22167 -0.733487 -0.20892 0.0 0.0 0.0 0.0 0.0 0.0 0.0 0.0 0.0 0.00693078 -2.37633 0.334165 5.43582e-10 6.21964e-10 -1.36775e-09 9.41755e-10 1.07706e-09 -2.36343e-09 5.43584e-10 6.21968e-10 -1.36775e-09 -7.73091 5.47488 -0.417314 5.43585e-10 6.21967e-10 -1.36775e-09 -2.90554 0.965183 -0.102902 5.43581e-10 6.21967e-10 -1.36775e-09 -10.2786 0.731801 -0.0259123 5.43588e-10 6.21966e-10 -1.36776e-09 -2.22167 -0.733487 0.20892 -2.03217e-16 0.0 -3.88251e-19 7.69934 -34.2063 15.0997 0.0205216 16.4777 0.554495 -4.58693 -19.99 -14.3931 2.03217e-16 0.0 3.88251e-19 -12.4085 -2.65468 -6.30955 0.185062 35.5992 -0.826723 0.83078 2.808 27.3033
-187.6047 82.6217 -12.346156 239.493 -93.3369 -225.874 -4.71357 -2.85425 -1.22146 1.25285 -17.0694 -0.375004 7.61522 -5.20742 5.66302 -12.8972 -3.32562 7.93209 -0.0 0.0 0.0 -0.0 0.0 0.0 0.0 0.0 0.0 0.0 0.0 0.0 0.0 0.0 0.0 -0.632253 -22.0714 -3.26492 -1.25748e-09 -2.02832e-10 -5.94123e-11 -2.17352e-09 -3.48248e-10 -1.16744e-10 -1.25747e-09 -2.02829e-10 -5.94176e-11 7.73091 5.47488 0.417314 -1.25748e-09 -2.0283e-10 -5.94135e-11 2.90554 0.965183 0.102902 -1.25747e-09 -2.0283e-10 -5.94125e-11 10.2786 0.731801 0.0259123 -1.25748e-09 -2.0283e-10 -5.94098e-11 2.22167 -0.733487 -0.20892 0.0 0.0 0.0 0.0 0.0 0.0 0.0 0.0 0.0 -0.00359427 -1.40666 0.197715 -6.91766e-10 -4.48837e-11 1.55464e-09 -1.19117e-09 -7.75004e-11 2.69293e-09 -6.91768e-10 -4.48793e-11 1.55464e-09 -7.73091 5.47488 -0.417314 -6.91764e-10 -4.48795e-11 1.55464e-09 -2.90554 0.965183 -0.102902 -6.91769e-10 -4.48803e-11 1.55463e-09 -10.2786 0.731801 -0.0259123 -6.91761e-10 -4.4882e-11 1.55463e-09 -2.22167 -0.733487 0.20892 -2.03217e-16 0.0 -3.88251e-19 9.41689 -33.2474 13.7374 -0.0450194 19.4993 0.404838 -3.87397 -19.1142 -13.0205 2.03217e-16 0.0 3.88251e-19 -10.325 -5.08425 -4.46651 0.340885 42.2824 -1.04555 1.64565 0.928713 25.2019
-191.5303 81.2513 -12.8191974 232.026 -93.018 -219.464 -1.25961 -0.794215 -0.655537 0.990862 -17.0783 -0.134061 7.16021 -4.79183 5.70743 -14.0446 -4.87 7.98783 -0.0 0.0 0.0 -0.0 0.0 0.0 0.0 0.0 0.0 0.0 0.0 0.0 0.0 0.0 0.0 -0.542494 -20.5829 -3.02273 -2.77007e-09 -1.23629e-10 -3.48216e-10 -4.77853e-09 -2.10631e-10 -6.29217e-10 -2.77006e-09 -1.23625e-10 -3.48226e-10 7.73091 5.47488 0.417314 -2.77007e-09 -1.23625e-10 -3.48219e-10 2.90554 0.965183 0.102902 -2.77007e-09 -1.23626e-10 -3.48219e-10 10.2786 0.731801 0.0259123 -2.77008e-09 -1.23625e-10 -3.48219e-10 2.22167 -0.733487 -0.20892 0.0 0.0 0.0 0.0 0.0 0.0 0.0 0.0 0.0 -0.00977879 0.250028 -0.0350812 -2.14255e-09 -5.56765e-10 5.13298e-09 -3.69503e-09 -9.63871e-10 8.88404e-09 -2.14255e-09 -5.56761e-10 5.133e-09 -7.73091 5.47488 -0.417314 -2.14254e-09 -5.5676e-10 5.13298e-09 -2.90554 0.965183 -0.102902 -2.14255e-09 -5.56762e-10 5.13298e-09 -10.2786 0.731801 -0.0259123 -2.14254e-09 -5.56764e-10 5.13297e-09 -2.22167 -0.733487 0.20892 -2.03217e-16 0.0 -3.88251e-19 12.1121 -32.3497 12.0226 -0.112439 23.8033 0.177833 -3.29925 -18.2692 -12.104 2.03217e-16 0.0 3.88251e-19 -7.40809 -7.45805 -2.83538 0.554812 49.3476 -1.27672 2.67981 -3.35883 20.6491
-195.1861 79.6551 -13.47686 209.829 -92.1592 -198.324 2.50976 1.35511 0.111657 0.783961 -17.1614 0.175753 6.60731 -4.33718 5.68565 -15.1341 -6.42331 7.9564 -0.0 0.0 0.0 -0.0 0.0 0.0 0.0 0.0 0.0 0.0 0.0 0.0 0.0 0.0 0.0 -0.458897 -18.9767 -2.76851 -4.0442e-09 4.21319e-11 -5.86826e-10 -6.97175e-09 7.6355e-11 -1.05246e-09 -4.04419e-09 4.21375e-11 -5.86842e-10 7.73091 5.47488 0.417314 -4.0442e-09 4.2139e-11 -5.86832e-10 2.90554 0.965183 0.102902 -4.04419e-09 4.21372e-11 -5.86832e-10 10.2786 0.731801 0.0259123 -4.04421e-09 4.21383e-11 -5.86834e-10 2.22167 -0.733487 -0.20892 0.0 0.0 0.0 0.0 0.0 0.0 0.0 0.0 0.0 -0.00168905 1.95834 -0.275234 -3.31934e-09 -9.44413e-10 8.10035e-09 -5.72572e-09 -1.63506e-09 1.40179e-08 -3.31936e-09 -9.4441e-10 8.10038e-09 -7.73091 5.47488 -0.417314 -3.31934e-09 -9.44406e-10 8.10036e-09 -2.90554 0.965183 -0.102902 -3.31935e-09 -9.44409e-10 8.10035e-09 -10.2786 0.731801 -0.0259123 -3.31934e-09 -9.44412e-10 8.10035e-09 -2.22167 -0.733487 0.20892 -2.03217e-16 0.0 -3.88251e-19 15.0892 -31.421 10.2393 -0.129976 28.2111 -0.0435587 -2.85243 -17.7392 -11.2919 2.03217e-16 0.0 3.88251e-19 -4.24075 -10.3606 -1.46493 0.81311 56.0572 -1.55841 2.94736 -8.48195 15.5584
